<?xml version="1.0" encoding="UTF-8"?>
<svg xmlns="http://www.w3.org/2000/svg" viewBox="0 0 500 500" width="100%" height="100%" preserveAspectRatio="xMidYMid meet">
<path d="M0 0 C10.24486358 8.13057127 16.91723596 17.82613124 19.328125 30.84765625 C20.25279408 40.38904529 20.14858161 49.9332575 16.328125 58.84765625 C16.09609375 59.4921875 15.8640625 60.13671875 15.625 60.80078125 C10.75125388 72.55511013 0.5677747 80.41487229 -10.75 85.3515625 C-22.96362678 90.22578093 -36.01252886 89.92757665 -48.1796875 85.0078125 C-60.60666418 79.2228406 -69.87788085 70.38300438 -74.99609375 57.51953125 C-79.2421127 44.23023686 -78.80610738 31.83424403 -73.671875 18.84765625 C-71.96057239 15.56807056 -69.98775222 12.72580174 -67.671875 9.84765625 C-67.135625 9.15027344 -66.599375 8.45289063 -66.046875 7.734375 C-50.0404637 -11.94017223 -20.32929129 -14.33397634 0 0 Z M-53.359375 10.53515625 C-61.68081009 18.85659134 -66.44741962 28.3394143 -66.921875 40.09765625 C-66.76886155 49.23255928 -63.19022995 57.62306899 -57.671875 64.84765625 C-57.011875 64.84765625 -56.351875 64.84765625 -55.671875 64.84765625 C-55.671875 65.50765625 -55.671875 66.16765625 -55.671875 66.84765625 C-47.18356861 74.20182567 -37.20174904 78.39874362 -25.890625 77.66796875 C-15.965106 76.41448826 -7.11702913 72.37305081 -0.23828125 64.98046875 C7.18977568 54.86645607 9.18009089 45.09162317 8.328125 32.84765625 C6.06410798 21.96400818 -0.50979462 13.75912866 -9.3515625 7.28515625 C-23.899449 -1.72767579 -39.67995503 1.94575302 -53.359375 10.53515625 Z " fill="#1E50FF" transform="translate(96.671875,210.15234375)"/>
<path d="M0 0 C6.83183095 2.0875039 13.59092932 3.8545124 20.625 5.125 C21.54773699 7.89321096 21.75987115 9.57980329 21.75 12.4375 C21.75386719 13.54544922 21.75386719 13.54544922 21.7578125 14.67578125 C21.60231135 17.54340546 21.13836208 20.30150857 20.625 23.125 C19.39523438 23.15078125 18.16546875 23.1765625 16.8984375 23.203125 C15.26559068 23.25943006 13.63277955 23.31677685 12 23.375 C11.19175781 23.38917969 10.38351563 23.40335937 9.55078125 23.41796875 C4.19626219 23.63563213 0.72872073 24.36220376 -3.375 28.125 C-5.45676784 32.47114689 -5.72978766 36.7262487 -6 41.5 C-6.07476562 42.74523437 -6.14953125 43.99046875 -6.2265625 45.2734375 C-6.27554688 46.21445312 -6.32453125 47.15546875 -6.375 48.125 C-9.47563523 49.15854508 -11.68944068 49.25864996 -14.9375 49.25 C-15.90816406 49.25257813 -16.87882812 49.25515625 -17.87890625 49.2578125 C-20.375 49.125 -20.375 49.125 -22.375 48.125 C-22.85140047 44.60114894 -23.16500172 41.10436543 -23.41015625 37.55859375 C-23.86353732 32.60561947 -24.62650978 29.69882939 -28.375 26.125 C-32.08058352 23.35431141 -36.67049045 23.67729391 -41.125 23.5 C-41.91777344 23.46132813 -42.71054687 23.42265625 -43.52734375 23.3828125 C-45.47619416 23.288892 -47.42556451 23.20587178 -49.375 23.125 C-50.96912284 19.93675432 -50.47674735 16.49603338 -50.4375 13 C-50.43298828 12.24589844 -50.42847656 11.49179688 -50.42382812 10.71484375 C-50.41203499 8.85152873 -50.39409942 6.98825445 -50.375 5.125 C-49.15425781 4.88265625 -47.93351562 4.6403125 -46.67578125 4.390625 C-38.03818735 2.64181792 -29.64818757 0.81724182 -21.33203125 -2.140625 C-13.63498947 -4.05217567 -7.37171095 -2.2969824 0 0 Z M-20.25 6.625 C-23.0100094 9.87206989 -23.375 11.88807962 -23.375 16.125 C-22.02937601 19.07255732 -21.28945456 20.66777272 -18.375 22.125 C-12.83403073 22.65299624 -12.83403073 22.65299624 -7.875 20.625 C-5.75659275 17.09432124 -5.57509137 14.14103612 -6.375 10.125 C-8.51101934 6.79280982 -10.0077189 6.23184541 -13.8125 5.125 C-17.38905365 4.85035143 -17.38905365 4.85035143 -20.25 6.625 Z " fill="#1E50FF" transform="translate(82.375,236.875)"/>
<path d="M0 0 C0.73714737 -0.00619858 1.47429474 -0.01239716 2.23377991 -0.01878357 C3.78954755 -0.02587268 5.3453912 -0.02272341 6.90112305 -0.01000977 C9.274704 0.00384524 11.64433083 -0.03020427 14.01757812 -0.06835938 C15.53255304 -0.06931078 17.04753287 -0.06745057 18.5625 -0.0625 C19.26785385 -0.07575821 19.9732077 -0.08901642 20.69993591 -0.10267639 C24.54123286 -0.03054249 26.24595113 0.48753102 29.31469727 2.86743164 C31.89356883 6.2911647 31.7581458 8.37941284 31.34765625 12.56640625 C28.37765625 12.56640625 25.40765625 12.56640625 22.34765625 12.56640625 C22.34765625 11.24640625 22.34765625 9.92640625 22.34765625 8.56640625 C9.97265625 9.06140625 9.97265625 9.06140625 -2.65234375 9.56640625 C-2.65234375 11.87640625 -2.65234375 14.18640625 -2.65234375 16.56640625 C-1.79479492 16.58098877 -0.93724609 16.59557129 -0.05371094 16.6105957 C3.13726038 16.67176103 6.32759212 16.74593387 9.51806641 16.82885742 C10.89718292 16.86204818 12.27643336 16.89009842 13.65576172 16.9128418 C15.64187931 16.94649267 17.62762184 17.00035354 19.61328125 17.0546875 C20.80727539 17.08087158 22.00126953 17.10705566 23.23144531 17.1340332 C26.57993966 17.59863548 27.98790646 18.18665263 30.34765625 20.56640625 C31.49309874 24.00273372 31.58743645 26.8207258 31.66015625 30.44140625 C31.71623047 32.26285156 31.71623047 32.26285156 31.7734375 34.12109375 C31.25522622 38.31432633 30.41010621 39.68212198 27.34765625 42.56640625 C24.5083143 43.06367583 22.27562072 43.2466194 19.44140625 43.1953125 C18.67969116 43.19772446 17.91797607 43.20013641 17.13317871 43.20262146 C15.52606998 43.20164392 13.91892719 43.18827219 12.31201172 43.16333008 C9.85527917 43.12901273 7.4021437 43.1426732 4.9453125 43.16210938 C3.38149514 43.15521065 1.81768705 43.14553802 0.25390625 43.1328125 C-0.47848267 43.13777237 -1.21087158 43.14273224 -1.9654541 43.14784241 C-5.44589742 43.06767312 -7.32880591 42.81552015 -10.12207031 40.66479492 C-12.61629447 37.24458806 -11.92755327 34.694549 -11.65234375 30.56640625 C-9.01234375 30.56640625 -6.37234375 30.56640625 -3.65234375 30.56640625 C-3.32234375 31.55640625 -2.99234375 32.54640625 -2.65234375 33.56640625 C5.59765625 33.89640625 13.84765625 34.22640625 22.34765625 34.56640625 C22.34765625 31.59640625 22.34765625 28.62640625 22.34765625 25.56640625 C21.01589355 25.59782715 21.01589355 25.59782715 19.65722656 25.62988281 C16.3547117 25.69816302 13.05294955 25.74825495 9.75 25.78613281 C8.32214504 25.80621607 6.894372 25.83348877 5.46679688 25.86816406 C3.41125257 25.91683294 1.3567977 25.93940592 -0.69921875 25.95703125 C-1.93510742 25.97797852 -3.17099609 25.99892578 -4.44433594 26.02050781 C-7.65234375 25.56640625 -7.65234375 25.56640625 -10.05371094 23.79003906 C-11.73961101 21.44502107 -12.16437076 20.43442048 -12.18359375 17.59765625 C-12.18875 16.86160156 -12.19390625 16.12554687 -12.19921875 15.3671875 C-12.18375 14.60792969 -12.16828125 13.84867188 -12.15234375 13.06640625 C-12.1678125 12.30714844 -12.18328125 11.54789063 -12.19921875 10.765625 C-12.1940625 10.02957031 -12.18890625 9.29351562 -12.18359375 8.53515625 C-12.17908203 7.86935547 -12.17457031 7.20355469 -12.16992188 6.51757812 C-10.51593715 0.28236777 -5.59249441 -0.03921247 0 0 Z " fill="#1E50FF" transform="translate(402.65234375,225.43359375)"/>
<path d="M0 0 C1.14257263 -0.00717545 1.14257263 -0.00717545 2.30822754 -0.01449585 C3.91530427 -0.01789143 5.52245038 -0.00871253 7.12939453 0.01220703 C9.58653045 0.03898382 12.03909955 0.01245445 14.49609375 -0.01953125 C16.05990589 -0.01622708 17.6237152 -0.00982069 19.1875 0 C19.91988892 -0.01012115 20.65227783 -0.02024231 21.40686035 -0.03067017 C24.99241857 0.05152645 26.78980043 0.40660998 29.5546875 2.74853516 C31.46923525 6.37536402 31.61059527 8.88150248 31.625 12.9765625 C31.6288269 13.66790283 31.63265381 14.35924316 31.63659668 15.0715332 C31.63930787 16.52719588 31.63200211 17.98290794 31.61523438 19.43847656 C31.5938084 21.65801295 31.61505772 23.87431346 31.640625 26.09375 C31.63798158 27.51302793 31.63285629 28.93230385 31.625 30.3515625 C31.62048828 31.63417969 31.61597656 32.91679687 31.61132812 34.23828125 C30.99120377 38.34280243 30.26489995 39.97802299 27.09375 42.6640625 C24.25577916 43.17358978 22.02269197 43.36730557 19.1875 43.328125 C18.04492737 43.33530045 18.04492737 43.33530045 16.87927246 43.34262085 C15.27219573 43.34601643 13.66504962 43.33683753 12.05810547 43.31591797 C9.60096955 43.28914118 7.14840045 43.31567055 4.69140625 43.34765625 C3.12759411 43.34435208 1.5637848 43.33794569 0 43.328125 C-1.09858337 43.34330673 -1.09858337 43.34330673 -2.21936035 43.35879517 C-5.80491857 43.27659855 -7.60230043 42.92151502 -10.3671875 40.57958984 C-12.28173525 36.95276098 -12.42309527 34.44662252 -12.4375 30.3515625 C-12.4413269 29.66022217 -12.44515381 28.96888184 -12.44909668 28.2565918 C-12.45180787 26.80092912 -12.44450211 25.34521706 -12.42773438 23.88964844 C-12.4063084 21.67011205 -12.42755772 19.45381154 -12.453125 17.234375 C-12.45048158 15.81509707 -12.44535629 14.39582115 -12.4375 12.9765625 C-12.43298828 11.69394531 -12.42847656 10.41132813 -12.42382812 9.08984375 C-11.24997293 1.32025122 -7.24197473 -0.10007954 0 0 Z M-2.90625 8.6640625 C-2.90625 17.2440625 -2.90625 25.8240625 -2.90625 34.6640625 C5.34375 34.6640625 13.59375 34.6640625 22.09375 34.6640625 C22.09375 26.0840625 22.09375 17.5040625 22.09375 8.6640625 C13.84375 8.6640625 5.59375 8.6640625 -2.90625 8.6640625 Z " fill="#1F51FF" transform="translate(284.90625,225.3359375)"/>
<path d="M0 0 C0.74234894 -0.00807175 1.48469788 -0.01614349 2.24954224 -0.02445984 C3.82144843 -0.03829592 5.39338462 -0.04902021 6.96533203 -0.05688477 C9.3667908 -0.07410387 11.76687468 -0.11799155 14.16796875 -0.16210938 C15.69530238 -0.17223604 17.22264771 -0.18075223 18.75 -0.1875 C19.46678925 -0.20500809 20.18357849 -0.22251617 20.92208862 -0.24055481 C24.11221727 -0.22670665 26.21795442 0.06361285 28.96826172 1.72094727 C31.19818229 5.3671114 31.00387595 8.80173833 30.8984375 12.94140625 C30.89277771 13.77919617 30.88711792 14.61698608 30.88128662 15.48016357 C30.85893579 18.15012291 30.80874348 20.81872912 30.7578125 23.48828125 C30.73774575 25.30076184 30.71949528 27.11326351 30.703125 28.92578125 C30.65907544 33.36380084 30.59005816 37.80081181 30.5078125 42.23828125 C27.8678125 42.23828125 25.2278125 42.23828125 22.5078125 42.23828125 C22.5078125 37.61828125 22.5078125 32.99828125 22.5078125 28.23828125 C13.9278125 28.23828125 5.3478125 28.23828125 -3.4921875 28.23828125 C-3.4921875 32.85828125 -3.4921875 37.47828125 -3.4921875 42.23828125 C-6.4621875 42.23828125 -9.4321875 42.23828125 -12.4921875 42.23828125 C-12.56651168 37.20291348 -12.62087151 32.16786717 -12.65698242 27.13208008 C-12.6720409 25.42010941 -12.69249205 23.70817714 -12.71850586 21.99633789 C-12.7550194 19.5313162 -12.77194312 17.0668059 -12.78515625 14.6015625 C-12.80064011 13.83991287 -12.81612396 13.07826324 -12.83207703 12.29353333 C-12.83350422 7.75629825 -12.32476319 4.83441708 -9.4921875 1.23828125 C-6.46770479 -0.27396011 -3.32002614 0.03402265 0 0 Z M-3.4921875 8.23828125 C-3.4921875 12.19828125 -3.4921875 16.15828125 -3.4921875 20.23828125 C5.0878125 20.23828125 13.6678125 20.23828125 22.5078125 20.23828125 C22.5078125 16.60828125 22.5078125 12.97828125 22.5078125 9.23828125 C21.45909997 7.96522569 21.45909997 7.96522569 19.09936523 8.12475586 C17.53617554 8.13261108 17.53617554 8.13261108 15.94140625 8.140625 C14.81669922 8.14384766 13.69199219 8.14707031 12.53320312 8.15039062 C10.75719727 8.16295898 10.75719727 8.16295898 8.9453125 8.17578125 C7.75744141 8.18029297 6.56957031 8.18480469 5.34570312 8.18945312 C2.39971838 8.20128439 -0.54624066 8.21922049 -3.4921875 8.23828125 Z " fill="#1E50FF" transform="translate(143.4921875,225.76171875)"/>
<path d="M0 0 C13.2 0 26.4 0 40 0 C40 2.64 40 5.28 40 8 C29.77 8 19.54 8 9 8 C9 10.97 9 13.94 9 17 C17.25 17 25.5 17 34 17 C34 19.64 34 22.28 34 25 C25.75 25 17.5 25 9 25 C9 27.97 9 30.94 9 34 C19.23 34 29.46 34 40 34 C40 36.64 40 39.28 40 42 C26.8 42 13.6 42 0 42 C0 28.14 0 14.28 0 0 Z " fill="#1E50FF" transform="translate(439,226)"/>
<path d="M0 0 C2.97 0 5.94 0 9 0 C9 11.22 9 22.44 9 34 C17.25 34 25.5 34 34 34 C34 22.78 34 11.56 34 0 C36.97 0 39.94 0 43 0 C43.09908128 5.1777593 43.17156806 10.35496347 43.21972656 15.53344727 C43.23980786 17.29396175 43.26707879 19.05440982 43.30175781 20.81469727 C43.35043112 23.34928802 43.37300305 25.88299495 43.390625 28.41796875 C43.41127014 29.20149216 43.43191528 29.98501556 43.45318604 30.7922821 C43.45463818 34.35093579 43.09644245 36.81125406 41.46972656 39.99487305 C38.121453 42.71327665 35.23110092 42.72123809 31.09375 42.6640625 C29.95117737 42.67123795 29.95117737 42.67123795 28.78552246 42.67855835 C27.17844573 42.68195393 25.57129962 42.67277503 23.96435547 42.65185547 C21.50721955 42.62507868 19.05465045 42.65160805 16.59765625 42.68359375 C15.03384411 42.68028958 13.4700348 42.67388319 11.90625 42.6640625 C10.80766663 42.67924423 10.80766663 42.67924423 9.68688965 42.69473267 C6.15491834 42.61376449 4.29768479 42.24168497 1.53027344 39.99487305 C-0.46258027 36.09469174 -0.50324077 32.6919568 -0.390625 28.41796875 C-0.38496521 27.60378983 -0.37930542 26.7896109 -0.37347412 25.95075989 C-0.35116774 23.36239647 -0.30098445 20.7754416 -0.25 18.1875 C-0.22992747 16.42775444 -0.21167802 14.66798707 -0.1953125 12.90820312 C-0.15132207 8.60492995 -0.08233627 4.3027034 0 0 Z " fill="#1E50FF" transform="translate(180,226)"/>
<path d="M0 0 C3.63 0 7.26 0 11 0 C11.64066406 1.16015625 12.28132813 2.3203125 12.94140625 3.515625 C17.85993609 12.40556755 22.82293365 21.25727206 28 30 C30.51897727 26.80322563 32.55042689 23.45053772 34.57421875 19.921875 C34.90291458 19.35043762 35.23161041 18.77900024 35.57026672 18.19024658 C36.61180761 16.37823232 37.64970219 14.56416012 38.6875 12.75 C39.39624393 11.51548693 40.10522584 10.28111045 40.81445312 9.046875 C42.54572539 6.03282571 44.27373541 3.01692081 46 0 C49.63 0 53.26 0 57 0 C52.70846436 7.93529232 48.30266265 15.79892468 43.82128906 23.62792969 C42.73600043 25.52446415 41.65306704 27.42233038 40.5703125 29.3203125 C39.87513838 30.53653744 39.17983092 31.75268618 38.484375 32.96875 C37.55189941 34.59973633 37.55189941 34.59973633 36.60058594 36.26367188 C33.30357616 41.90017059 33.30357616 41.90017059 31.06005859 42.63793945 C28.43673558 42.82475949 26.52667179 42.76901008 24 42 C21.13458821 39.14797799 19.46284956 35.76065307 17.625 32.1875 C16.51956486 30.17706485 15.41409543 28.16664856 14.30859375 26.15625 C13.76187012 25.13273437 13.21514648 24.10921875 12.65185547 23.0546875 C10.11478892 18.36302674 7.39448132 13.78242041 4.6875 9.1875 C0 1.16873726 0 1.16873726 0 0 Z " fill="#1E50FF" transform="translate(318,226)"/>
<path d="M0 0 C14.52 0 29.04 0 44 0 C44 2.64 44 5.28 44 8 C38.06 8 32.12 8 26 8 C26 19.22 26 30.44 26 42 C23.36 42 20.72 42 18 42 C18 30.78 18 19.56 18 8 C12.06 8 6.12 8 0 8 C0 5.36 0 2.72 0 0 Z " fill="#1E50FF" transform="translate(226,226)"/>
<path d="M0 0 C2.97 0 5.94 0 9 0 C9 13.86 9 27.72 9 42 C6.03 42 3.06 42 0 42 C0 28.14 0 14.28 0 0 Z " fill="#1F50FF" transform="translate(378,226)"/>
</svg>
